<svg width="42" height="22" viewBox="0 0 42 22" fill="none" xmlns="http://www.w3.org/2000/svg">
<path d="M0.750122 14.19C0.750122 13.4571 1.19384 12.7971 1.87257 12.5204L5.00526 11.2437C5.77922 10.9283 6.6405 10.9002 7.43336 11.1646L10.298 12.1198C10.8644 12.3087 11.299 12.7682 11.4561 13.3442C11.5857 13.8197 11.5131 14.3277 11.2554 14.7478L11.0648 15.0584C10.5869 15.8375 9.73845 16.3124 8.82438 16.3124H3.28048C2.81474 16.3124 2.35804 16.1839 1.96068 15.941L1.61264 15.7282C1.07687 15.4007 0.750122 14.818 0.750122 14.19Z" fill="url(#paint0_linear_266_2656)"/>
<path d="M29.84 14.19C29.84 13.4571 30.2837 12.7971 30.9624 12.5204L34.0951 11.2437C34.8691 10.9283 35.7303 10.9002 36.5232 11.1646L39.3878 12.1198C39.9543 12.3087 40.3888 12.7682 40.5459 13.3442C40.6755 13.8197 40.6029 14.3277 40.3452 14.7478L40.1547 15.0584C39.6767 15.8375 38.8283 16.3124 37.9142 16.3124H32.3703C31.9046 16.3124 31.4479 16.1839 31.0505 15.941L30.7025 15.7282C30.1667 15.4007 29.84 14.818 29.84 14.19Z" fill="url(#paint1_linear_266_2656)"/>
<path d="M13.4767 17.7771C13.4767 16.7525 14.0992 15.8308 15.0495 15.448L19.8417 13.5179C20.7131 13.167 21.689 13.181 22.5499 13.5569L25.9152 15.0265C26.9454 15.4763 27.6772 16.418 27.8587 17.5275L27.8945 17.7468C27.9777 18.2552 27.9071 18.7768 27.6918 19.2448C27.2698 20.1621 26.3525 20.7498 25.3428 20.7498H17.0276C16.3896 20.7498 15.7638 20.5754 15.2178 20.2455L14.6892 19.9262C13.9366 19.4716 13.4767 18.6563 13.4767 17.7771Z" fill="url(#paint2_linear_266_2656)"/>
<rect x="32.5665" y="1.85889" width="5.45455" height="6.66905" rx="2.72727" fill="url(#paint3_linear_266_2656)"/>
<rect x="3.47668" y="1.85889" width="5.45455" height="6.66905" rx="2.72727" fill="url(#paint4_linear_266_2656)"/>
<rect x="17.1134" y="0.75" width="7.27273" height="8.89207" rx="3.5" fill="url(#paint5_linear_266_2656)"/>
<path d="M16.3677 14.4102C15.2244 15.2295 12.2269 16.9024 14.0526 18.9958C14.9444 20.0184 15.9377 20.7498 17.1865 20.7498H24.3123C25.5611 20.7498 26.5544 20.0184 27.4463 18.9958C29.2719 16.9024 26.2744 15.2295 25.1312 14.4102C22.4503 12.4889 19.0486 12.4889 16.3677 14.4102Z" stroke="white" stroke-width="1.5" stroke-linecap="round" stroke-linejoin="round"/>
<path d="M24.3861 5.19604C24.3861 7.65152 22.7581 9.64207 20.7498 9.64207C18.7415 9.64207 17.1134 7.65152 17.1134 5.19604C17.1134 2.74056 18.7415 0.75 20.7498 0.75C22.7581 0.75 24.3861 2.74056 24.3861 5.19604Z" stroke="white" stroke-width="1.5"/>
<path d="M29.5275 6.87066L30.2071 6.0876C30.5689 5.67078 30.7498 5.46237 30.7498 5.2034C30.7498 4.94442 30.5689 4.73601 30.2071 4.3192L29.5275 3.53613M30.7311 5.2034L27.1134 5.2034" stroke="white" stroke-width="1.5" stroke-linecap="round" stroke-linejoin="round"/>
<path d="M11.9728 6.87066L11.2931 6.0876C10.9314 5.67078 10.7505 5.46237 10.7505 5.2034C10.7505 4.94442 10.9314 4.73601 11.2931 4.3192L11.9728 3.53613M10.7692 5.2034L14.3868 5.2034" stroke="white" stroke-width="1.5" stroke-linecap="round" stroke-linejoin="round"/>
<path d="M2.91835 11.7841C2.06091 12.3693 -0.187233 13.5643 1.18204 15.0596C1.85092 15.79 2.59587 16.3124 3.53247 16.3124H8.87687C9.81346 16.3124 10.5584 15.79 11.2273 15.0596C12.5966 13.5643 10.3484 12.3693 9.49099 11.7841C7.48031 10.4118 4.92902 10.4118 2.91835 11.7841Z" stroke="white" stroke-width="1.5" stroke-linecap="round" stroke-linejoin="round"/>
<path d="M32.0082 11.7841C31.1508 12.3693 28.9026 13.5643 30.2719 15.0596C30.9408 15.79 31.6857 16.3124 32.6223 16.3124H37.9667C38.9033 16.3124 39.6483 15.79 40.3171 15.0596C41.6864 13.5643 39.4383 12.3693 38.5808 11.7841C36.5702 10.4118 34.0189 10.4118 32.0082 11.7841Z" stroke="white" stroke-width="1.5" stroke-linecap="round" stroke-linejoin="round"/>
<path d="M8.93123 5.19341C8.93123 7.03502 7.71019 8.52794 6.20396 8.52794C4.69773 8.52794 3.47668 7.03502 3.47668 5.19341C3.47668 3.35181 4.69773 1.85889 6.20396 1.85889C7.71019 1.85889 8.93123 3.35181 8.93123 5.19341Z" stroke="white" stroke-width="1.5"/>
<path d="M38.0211 5.19341C38.0211 7.03502 36.8 8.52794 35.2938 8.52794C33.7876 8.52794 32.5665 7.03502 32.5665 5.19341C32.5665 3.35181 33.7876 1.85889 35.2938 1.85889C36.8 1.85889 38.0211 3.35181 38.0211 5.19341Z" stroke="white" stroke-width="1.5"/>
<defs>
<linearGradient id="paint0_linear_266_2656" x1="6.20467" y1="10.7549" x2="6.20467" y2="16.3124" gradientUnits="userSpaceOnUse">
<stop stop-color="#105149"/>
<stop offset="1" stop-color="#24B7A6"/>
</linearGradient>
<linearGradient id="paint1_linear_266_2656" x1="35.2945" y1="10.7549" x2="35.2945" y2="16.3124" gradientUnits="userSpaceOnUse">
<stop stop-color="#105149"/>
<stop offset="1" stop-color="#24B7A6"/>
</linearGradient>
<linearGradient id="paint2_linear_266_2656" x1="21.204" y1="12.9692" x2="21.204" y2="20.7498" gradientUnits="userSpaceOnUse">
<stop stop-color="#105149"/>
<stop offset="1" stop-color="#24B7A6"/>
</linearGradient>
<linearGradient id="paint3_linear_266_2656" x1="35.2938" y1="1.85889" x2="35.2938" y2="8.52794" gradientUnits="userSpaceOnUse">
<stop stop-color="#105149"/>
<stop offset="1" stop-color="#24B7A6"/>
</linearGradient>
<linearGradient id="paint4_linear_266_2656" x1="6.20396" y1="1.85889" x2="6.20396" y2="8.52794" gradientUnits="userSpaceOnUse">
<stop stop-color="#105149"/>
<stop offset="1" stop-color="#24B7A6"/>
</linearGradient>
<linearGradient id="paint5_linear_266_2656" x1="20.7498" y1="0.75" x2="20.7498" y2="9.64207" gradientUnits="userSpaceOnUse">
<stop stop-color="#105149"/>
<stop offset="1" stop-color="#24B7A6"/>
</linearGradient>
</defs>
</svg>
